HIERARCHY
ROOT reference
{
  OFFSET 0 0 0
  CHANNELS 6 Xposition Yposition Zposition Zrotation Xrotation Yrotation
  JOINT Hips
  {
    OFFSET -86.2005 98.832 192.84
    CHANNELS 6 Xposition Yposition Zposition Zrotation Xrotation Yrotation
    JOINT Spine
    {
      OFFSET 0 7.86299 0
      CHANNELS 6 Xposition Yposition Zposition Zrotation Xrotation Yrotation
      JOINT Spine1
      {
        OFFSET 0 22.6654 0
        CHANNELS 6 Xposition Yposition Zposition Zrotation Xrotation Yrotation
        JOINT Neck
        {
          OFFSET 0 22.5723 2.05203
          CHANNELS 6 Xposition Yposition Zposition Zrotation Xrotation Yrotation
          JOINT Head
          {
            OFFSET 0 13.4246 -1.9178
            CHANNELS 6 Xposition Yposition Zposition Zrotation Xrotation Yrotation
            End Site
            {
              OFFSET 0 23.9725 0
            }
          }
        }
        JOINT LeftShoulder
        {
          OFFSET 3.7941 20.1358 -0.319195
          CHANNELS 6 Xposition Yposition Zposition Zrotation Xrotation Yrotation
          JOINT LeftArm
          {
            OFFSET 12.7665 0 0
            CHANNELS 6 Xposition Yposition Zposition Zrotation Xrotation Yrotation
            JOINT LeftForeArm
            {
              OFFSET 28.396 0 0
              CHANNELS 6 Xposition Yposition Zposition Zrotation Xrotation Yrotation
              JOINT LeftHand
              {
                OFFSET 28.7929 0 0
                CHANNELS 6 Xposition Yposition Zposition Zrotation Xrotation Yrotation
                End Site
                {
                  OFFSET 14.3835 0 0
                }
              }
            }
          }
        }
        JOINT RightShoulder
        {
          OFFSET -3.85764 20.1358 -0.319195
          CHANNELS 6 Xposition Yposition Zposition Zrotation Xrotation Yrotation
          JOINT RightArm
          {
            OFFSET -12.7665 0 0
            CHANNELS 6 Xposition Yposition Zposition Zrotation Xrotation Yrotation
            JOINT RightForeArm
            {
              OFFSET -28.396 0 0
              CHANNELS 6 Xposition Yposition Zposition Zrotation Xrotation Yrotation
              JOINT RightHand
              {
                OFFSET -28.7929 0 0
                CHANNELS 6 Xposition Yposition Zposition Zrotation Xrotation Yrotation
                End Site
                {
                  OFFSET -14.3835 0 0
                }
              }
            }
          }
        }
      }
    }
    JOINT LeftUpLeg
    {
      OFFSET 9.58901 0 0
      CHANNELS 6 Xposition Yposition Zposition Zrotation Xrotation Yrotation
      JOINT LeftLeg
      {
        OFFSET 0 -41.7092 0
        CHANNELS 6 Xposition Yposition Zposition Zrotation Xrotation Yrotation
        JOINT LeftFoot
        {
          OFFSET 0 -41.5308 0
          CHANNELS 6 Xposition Yposition Zposition Zrotation Xrotation Yrotation
          JOINT LeftToeBase
          {
            OFFSET 0 -6.23286 14.3835
            CHANNELS 6 Xposition Yposition Zposition Zrotation Xrotation Yrotation
            End Site
            {
              OFFSET 0 0 3.8356
            }
          }
        }
      }
    }
    JOINT RightUpLeg
    {
      OFFSET -9.58901 0 0
      CHANNELS 6 Xposition Yposition Zposition Zrotation Xrotation Yrotation
      JOINT RightLeg
      {
        OFFSET 0 -41.7092 0
        CHANNELS 6 Xposition Yposition Zposition Zrotation Xrotation Yrotation
        JOINT RightFoot
        {
          OFFSET 0 -41.5308 0
          CHANNELS 6 Xposition Yposition Zposition Zrotation Xrotation Yrotation
          JOINT RightToeBase
          {
            OFFSET 0 -6.23286 14.3835
            CHANNELS 6 Xposition Yposition Zposition Zrotation Xrotation Yrotation
            End Site
            {
              OFFSET 0 0 3.8356
            }
          }
        }
      }
    }
  }
}
MOTION
Frames:	4
Frame Time:	0.004
0 0 0 0 0 -0 -19.0367 85.6752 -192.719 -0.0656178 -2.31233 4.39463 1.77636e-015 7.86299 0 2.06755 -5.92599 -0.163929 3.55271e-015 22.6654 0 -1.41397 1.96432 -0.247049 -1.77636e-015 22.5723 2.05203 1.13735 22.3453 -0.655958 1.77636e-015 13.4246 -1.9178 1.62972 -5.84139 -0.294049 3.7941 20.1358 -0.319195 7.72246 2.82657 3.13449 12.7665 -2.84217e-014 0 -13.612 -10.2066 -4.60781 28.396 -2.84217e-014 0 4.51912 0.575468 -5.0033 28.7929 2.84217e-014 0 15.9962 -0.116673 -6.34599 -3.85764 20.1358 -0.319195 -6.91167 7.99764 7.41129 -12.7665 1.42109e-014 0 10.4192 -6.17669 0.493524 -28.396 0 0 -4.34485 0.335417 10.066 -28.7929 0 0 5.7529 0.718477 -0.011205 9.58901 -1.42109e-014 -2.84217e-014 3.91217 2.36011 -2.02077 -8.88178e-016 -41.7092 -2.84217e-014 -4.51448 5.51386 -6.355 0 -41.5308 0 2.94451 -10.5167 22.5203 0 -6.23286 14.3835 -1.98785e-016 7.95139e-016 3.18055e-015 -9.58901 0 -2.84217e-014 -0.940217 2.90619 2.09168 -3.55271e-015 -41.7092 2.84217e-014 2.75326 6.35788 -0.572126 0 -41.5308 0 -0.386456 -10.9481 -11.3359 0 -6.23286 14.3835 -4.96962e-017 0 -0 
0 0 0 0 0 -0 -19.0367 85.6752 -192.719 -0.0659135 -2.31235 4.3873 -1.77636e-015 7.86299 2.84217e-014 2.06752 -5.93638 -0.163932 1.77636e-015 22.6654 -2.84217e-014 -1.42369 1.96965 -0.24705 1.77636e-015 22.5723 2.05203 1.13732 22.3433 -0.655948 0 13.4246 -1.9178 1.62972 -5.84139 -0.294049 3.7941 20.1358 -0.319195 7.73745 2.82206 3.13448 12.7665 0 0 -13.6096 -10.2068 -4.59448 28.396 2.84217e-014 -2.84217e-014 4.51912 0.575468 -5.0033 28.7929 -2.84217e-014 0 15.9795 -0.116677 -6.33219 -3.85764 20.1358 -0.319195 -6.91167 7.99764 7.41129 -12.7665 0 -2.84217e-014 10.4192 -6.18315 0.49353 -28.396 -2.84217e-014 0 -4.34163 0.342262 10.066 -28.7929 2.84217e-014 -2.84217e-014 5.7529 0.724528 -0.011205 9.58901 -1.42109e-014 2.84217e-014 3.91177 2.34661 -2.02262 8.88178e-016 -41.7092 2.84217e-014 -4.5108 5.5269 -6.37792 0 -41.5308 0 2.92985 -10.5291 22.5584 -7.10543e-015 -6.23286 14.3835 -1.98785e-016 -7.95139e-016 3.18055e-015 -9.58901 0 2.84217e-014 -0.93985 2.89615 2.09166 0 -41.7092 0 2.75264 6.35789 -0.56657 0 -41.5308 0 -0.392472 -10.9603 -11.3162 -7.10543e-015 -6.23286 14.3835 -3.47873e-016 -7.95139e-016 -0 
0 0 0 0 0 -0 -19.0367 85.6752 -192.715 -0.0662779 -2.31238 4.37827 1.77636e-015 7.86299 0 2.06752 -5.93461 -0.163932 1.77636e-015 22.6654 0 -1.41743 1.97738 -0.247051 0 22.5723 2.05203 1.12819 22.3302 -0.655886 1.77636e-015 13.4246 -1.9178 1.63639 -5.83723 -0.294047 3.7941 20.1358 -0.319195 7.7325 2.81612 3.1456 12.7665 -2.84217e-014 0 -13.6105 -10.2068 -4.59936 28.396 0 -2.84217e-014 4.51912 0.575468 -5.0033 28.7929 -2.84217e-014 2.84217e-014 15.9823 -0.116671 -6.3558 -3.85764 20.1358 -0.319195 -6.91167 7.99764 7.41129 -12.7665 1.42109e-014 -2.84217e-014 10.4193 -6.19216 0.493538 -28.396 0 0 -4.33661 0.352484 10.066 -28.7929 0 0 5.7544 0.734558 -0.000513 9.58901 0 -2.84217e-014 3.91175 2.36002 -2.01046 -8.88178e-016 -41.7092 -2.84217e-014 -4.51271 5.5132 -6.374 0 -41.5308 0 2.91583 -10.5275 22.5458 0 -6.23286 14.3835 1.76556e-031 1.59028e-015 -6.36111e-015 -9.58901 -1.42109e-014 0 -0.940096 2.90287 2.09168 0 -41.7092 0 2.75067 6.35791 -0.548781 0 -41.5308 -2.84217e-014 -0.402789 -10.9567 -11.3486 0 -6.23286 14.3835 4.96962e-017 0 -2.38542e-015 
0 0 0 0 0 -0 -19.0345 85.6752 -192.712 -0.0664971 -2.31239 4.37284 -1.77636e-015 7.86299 0 2.06752 -5.9355 -0.163932 0 22.6654 0 -1.40674 1.97978 -0.247052 3.55271e-015 22.5723 2.05203 1.11626 22.3212 -0.655844 3.55271e-015 13.4246 -1.9178 1.65399 -5.82574 -0.294041 3.7941 20.1358 -0.319195 7.7325 2.8123 3.148 12.7665 0 -2.84217e-014 -13.6099 -10.2068 -4.59597 28.396 2.84217e-014 0 4.51912 0.575468 -5.0033 28.7929 0 2.84217e-014 15.9889 -0.116677 -6.33032 -3.85764 20.1358 -0.319195 -6.91653 8.00663 7.41146 -12.7665 2.84217e-014 0 10.4195 -6.21346 0.493558 -28.396 0 0 -4.33323 0.367225 10.066 -28.7929 -2.84217e-014 0 5.73442 0.748053 -0.020433 9.58901 0 0 3.91164 2.36062 -2.00739 1.77636e-015 -41.7092 0 -4.51193 5.51534 -6.37957 0 -41.5308 0 2.91975 -10.5381 22.5443 0 -6.23286 14.3835 5.96354e-016 2.38542e-015 -3.18055e-015 -9.58901 -1.42109e-014 0 -0.940112 2.90332 2.09168 0 -41.7092 -2.84217e-014 2.75183 6.35779 -0.559246 3.55271e-015 -41.5308 0 -0.374485 -10.9553 -11.3449 1.42109e-014 -6.23286 14.3835 0 0 -1.59028e-015 
